<svg xmlns="http://www.w3.org/2000/svg" viewBox="0 0 471 583.4">
  <style>
    .st0{display:none}
    .st1{display:inline}
    .st2{fill:#362413}
    .st3{opacity:0.44;fill:#E2D0A8}
    .st4{opacity:0.5}
    .st5{fill:#E2D0A8}
    .st6{display:inline;fill:#E2D0A8}
    .st7{fill:#1C1C1B}
    .st8{fill:#D8AF76}
    .st9{fill:none;stroke:#E2D0A8;stroke-width:2;stroke-miterlimit:10}
    .st10{fill:#1D1D1B}
    .st11{fill:url(#Auge_rechts_1_)}
    .st12{fill:url(#Auge_links_1_)}
    .st13{fill:#1D1D1B;stroke:url(#Pupille_rechts_1_);stroke-miterlimit:10}
    .st14{fill:#1D1D1B;stroke:url(#Pupille_links_1_);stroke-miterlimit:10}
    .st15{opacity:0.58;fill:#FFFFFF}
    .st16{display:inline;opacity:0.41;fill:#FFFFFF}
    .st17{fill:#0A4C45}
    .st18{fill:#0B4C45}
    .st19{opacity:0.3}
    .st20{fill:none;stroke:#E2D0A8;stroke-width:1.5;stroke-miterlimit:10}
  </style>
  <switch>
    <g>
      <g class="st0 st1">
        <path d="M192.6 467.1l-5.6 7.6c-4.7 6.4-14.2 8.4-21.1 4.6l-148-82.6C9 391.8 6.7 381 12.7 372.8l5.6-7.6c4.7-6.4 14.2-8.4 21.1-4.6l148 82.6c8.9 5 11.2 15.7 5.2 23.9z" class="st2"/>
        <path d="M190.4 464.9l-3.2 5.2c-3.4 5.6-10.1 7.5-14.8 4.2l-.3-.2c-4.7-3.3-5.9-10.5-2.5-16.1l3.2-5.2c3.4-5.6 10.1-7.5 14.8-4.2l.3.2c4.8 3.3 5.9 10.5 2.5 16.1z" class="st3"/>
        <path d="M23.1 399.7s-.2-.1-.5-.4c-.3-.3-.8-.6-1.3-1.1-.6-.5-1.2-1.2-1.8-2.1-.6-.9-1.3-1.9-1.7-3.2-.3-.6-.4-1.3-.6-2-.1-.4-.1-.7-.2-1.1-.1-.4-.1-.8-.1-1.2-.1-1.6 0-3.3.4-4.9.4-1.7 1.1-3.4 2.1-4.9.2-.4.5-.8.8-1.1.3-.3.6-.8.8-1.1l1.6-1.9c1.1-1.3 2.2-2.5 3.3-3.8l.4-.5.5-.5.9-.9c.7-.6 1.4-1.2 2.1-1.6 1.4-1 2.9-1.7 4.3-2.2 1.4-.5 2.8-.9 4.2-1.1.7-.1 1.3-.2 1.9-.2h1.7c1.1 0 2 .1 2.7.3.7.1 1.3.3 1.7.4.4.1.6.2.6.2v.2s-.2 0-.6-.1c-.4-.1-1-.1-1.7-.1H42c-1 .1-2.1.2-3.4.5-1.2.3-2.5.7-3.8 1.3-1.3.6-2.6 1.3-3.9 2.3-1.3.9-2.4 2.1-3.4 3.3l-3.2 3.8c-1.1 1.3-2.2 2.5-3.1 3.9-.9 1.3-1.6 2.8-2 4.3-.4 1.5-.6 3-.6 4.4 0 1.4.2 2.8.6 4 .3 1.2.8 2.2 1.3 3.1.5.9 1 1.6 1.5 2.2.4.6.8 1 1.1 1.3l.4.4-.4.1z" class="st4 st5"/>
        <path d="M33.4 405.1s-.2-.1-.5-.4c-.3-.3-.8-.6-1.3-1.1-.6-.5-1.2-1.2-1.8-2.1-.6-.9-1.3-1.9-1.7-3.2-.3-.6-.4-1.3-.6-2-.1-.4-.1-.7-.2-1.1-.1-.4-.1-.8-.1-1.2-.1-1.6 0-3.3.4-4.9.4-1.7 1.1-3.4 2.1-4.9.2-.4.5-.8.8-1.1.3-.3.6-.8.8-1.1l1.6-1.9c1.1-1.3 2.2-2.5 3.3-3.8l.4-.5.5-.5.9-.9c.7-.6 1.4-1.2 2.1-1.6 1.4-1 2.9-1.7 4.3-2.2 1.4-.5 2.8-.9 4.2-1.1.7-.1 1.3-.2 1.9-.2h1.7c1.1 0 2 .1 2.7.3.7.1 1.3.3 1.7.4.4.1.6.2.6.2v.2s-.2 0-.6-.1c-.4-.1-1-.1-1.7-.1h-2.6c-1 .1-2.1.2-3.4.5-1.2.3-2.5.7-3.8 1.3-1.3.6-2.6 1.3-3.9 2.3-1.3.9-2.4 2.1-3.4 3.3l-3.2 3.8c-1.1 1.3-2.2 2.5-3.1 3.9-.9 1.3-1.6 2.8-2 4.3-.4 1.5-.6 3-.6 4.4 0 1.4.2 2.8.6 4 .3 1.2.8 2.2 1.3 3.1.5.9 1 1.6 1.5 2.2.4.6.8 1 1.1 1.3l.4.4-.4.1z" class="st4 st5"/>
        <path d="M43.1 410.8s-.2-.1-.5-.4c-.3-.3-.8-.6-1.3-1.1-.6-.5-1.2-1.2-1.8-2.1-.6-.9-1.3-1.9-1.7-3.2-.3-.6-.4-1.3-.6-2-.1-.4-.1-.7-.2-1.1-.1-.4-.1-.8-.1-1.2-.1-1.6 0-3.3.4-4.9.4-1.7 1.1-3.4 2.1-4.9.2-.4.5-.8.8-1.1.3-.3.6-.8.8-1.1l1.6-1.9c1.1-1.3 2.2-2.5 3.3-3.8l.4-.5.5-.5.9-.9c.7-.6 1.4-1.2 2.1-1.6 1.4-1 2.9-1.7 4.3-2.2 1.4-.5 2.8-.9 4.2-1.1.7-.1 1.3-.2 1.9-.2h1.7c1.1 0 2 .1 2.7.3.7.1 1.3.3 1.7.4.4.1.6.2.6.2v.2s-.2 0-.6-.1c-.4-.1-1-.1-1.7-.1H62c-1 .1-2.1.2-3.4.5-1.2.3-2.5.7-3.8 1.3-1.3.6-2.6 1.3-3.9 2.3-1.3.9-2.4 2.1-3.4 3.3l-3.2 3.8c-1.1 1.3-2.2 2.5-3.1 3.9-.9 1.3-1.6 2.8-2 4.3-.4 1.5-.6 3-.6 4.4 0 1.4.2 2.8.6 4 .3 1.2.8 2.2 1.3 3.1.5.9 1 1.6 1.5 2.2.4.6.8 1 1.1 1.3l.4.4-.4.1z" class="st4 st5"/>
        <path d="M53.4 416.2s-.2-.1-.5-.4c-.3-.3-.8-.6-1.3-1.1-.6-.5-1.2-1.2-1.8-2.1-.6-.9-1.3-1.9-1.7-3.2-.3-.6-.4-1.3-.6-2-.1-.4-.1-.7-.2-1.1-.1-.4-.1-.8-.1-1.2-.1-1.6 0-3.3.4-4.9.4-1.7 1.1-3.4 2.1-4.9.2-.4.5-.8.8-1.1.3-.3.6-.8.8-1.1l1.6-1.9c1.1-1.3 2.2-2.5 3.3-3.8l.4-.5.5-.5.9-.9c.7-.6 1.4-1.2 2.1-1.6 1.4-1 2.9-1.7 4.3-2.2 1.4-.5 2.8-.9 4.2-1.1.7-.1 1.3-.2 1.9-.2h1.7c1.1 0 2 .1 2.7.3.7.1 1.3.3 1.7.4.4.1.6.2.6.2v.2s-.2 0-.6-.1c-.4-.1-1-.1-1.7-.1h-2.6c-1 .1-2.1.2-3.4.5-1.2.3-2.5.7-3.8 1.3-1.3.6-2.6 1.3-3.9 2.3-1.3.9-2.4 2.1-3.4 3.3l-3.2 3.8c-1.1 1.3-2.2 2.5-3.1 3.9-.9 1.3-1.6 2.8-2 4.3-.4 1.5-.6 3-.6 4.4 0 1.4.2 2.8.6 4 .3 1.2.8 2.2 1.3 3.1.5.9 1 1.6 1.5 2.2.4.6.8 1 1.1 1.3l.4.4-.4.1z" class="st4 st5"/>
        <path d="M64 422.7s-.2-.1-.5-.4c-.3-.3-.8-.6-1.3-1.1-.6-.5-1.2-1.2-1.8-2.1-.6-.9-1.3-1.9-1.7-3.2-.3-.6-.4-1.3-.6-2-.1-.4-.1-.7-.2-1.1-.1-.4-.1-.8-.1-1.2-.1-1.6 0-3.3.4-4.9.4-1.7 1.1-3.4 2.1-4.9.2-.4.5-.8.8-1.1.3-.3.6-.8.8-1.1l1.6-1.9c1.1-1.3 2.2-2.5 3.3-3.8l.4-.5.5-.5.9-.9c.7-.6 1.4-1.2 2.1-1.6 1.4-1 2.9-1.7 4.3-2.2 1.4-.5 2.8-.9 4.2-1.1.7-.1 1.3-.2 1.9-.2h1.7c1.1 0 2 .1 2.7.3.7.1 1.3.3 1.7.4.4.1.6.2.6.2v.2s-.2 0-.6-.1c-.4-.1-1-.1-1.7-.1h-2.6c-1 .1-2.1.2-3.4.5-1.2.3-2.5.7-3.8 1.3-1.3.6-2.6 1.3-3.9 2.3-1.3.9-2.4 2.1-3.4 3.3l-3.2 3.8c-1.1 1.3-2.2 2.5-3.1 3.9-.9 1.3-1.6 2.8-2 4.3-.4 1.5-.6 3-.6 4.4 0 1.4.2 2.8.6 4 .3 1.2.8 2.2 1.3 3.1.5.9 1 1.6 1.5 2.2.4.6.8 1 1.1 1.3l.4.4-.4.1z" class="st4 st5"/>
        <path d="M74.4 429.2s-.2-.1-.5-.4c-.3-.3-.8-.6-1.3-1.1-.6-.5-1.2-1.2-1.8-2.1-.6-.9-1.3-1.9-1.7-3.2-.3-.6-.4-1.3-.6-2-.1-.4-.1-.7-.2-1.1-.1-.4-.1-.8-.1-1.2-.1-1.6 0-3.3.4-4.9.4-1.7 1.1-3.4 2.1-4.9.2-.4.5-.8.8-1.1.3-.3.6-.8.8-1.1l1.6-1.9c1.1-1.3 2.2-2.5 3.3-3.8l.4-.5.5-.5.9-.9c.7-.6 1.4-1.2 2.1-1.6 1.4-1 2.9-1.7 4.3-2.2 1.4-.5 2.8-.9 4.2-1.1.7-.1 1.3-.2 1.9-.2h1.7c1.1 0 2 .1 2.7.3.7.1 1.3.3 1.7.4.4.1.6.2.6.2v.2s-.2 0-.6-.1c-.4-.1-1-.1-1.7-.1h-2.6c-1 .1-2.1.2-3.4.5-1.2.3-2.5.7-3.8 1.3-1.3.6-2.6 1.3-3.9 2.3-1.3.9-2.4 2.1-3.4 3.3l-3.2 3.8c-1.1 1.3-2.2 2.5-3.1 3.9-.9 1.3-1.6 2.8-2 4.3-.4 1.5-.6 3-.6 4.4 0 1.4.2 2.8.6 4 .3 1.2.8 2.2 1.3 3.1.5.9 1 1.6 1.5 2.2.4.6.8 1 1.1 1.3l.4.4-.4.1z" class="st4 st5"/>
        <path d="M570.1 717C411 526.6 233.3 413.5 172.8 464.1" class="st0 st6"/>
      </g>
      <g>
        <path d="M213.5 239.6s-.1.2-.4.5c-.2.3-.6.8-1 1.3-.2.3-.5.6-.8.9-.2.4-.5.7-.8 1.1-.5.7-1.1 1.5-1.7 2.5-.3.5-.6.9-.9 1.4-.3.5-.6 1-.9 1.6-.2.3-.3.5-.5.8-.1.3-.3.6-.4.9-.2.6-.6 1.1-.8 1.8-.2.6-.5 1.2-.7 1.9-.1.3-.3.6-.3 1l-.3 1-.3 1-.3 1c-.2.7-.4 1.3-.5 2-.1.7-.3 1.4-.4 2l-.3 2-.1 1c0 .3 0 .7-.1 1 0 .7-.1 1.3-.1 2 .1 1.3-.1 2.6.1 3.9 0 .6.1 1.2.1 1.8.1.6.1 1.2.2 1.7.1 1.1.3 2.1.5 3 .1.5.2.9.2 1.3.1.4.2.8.2 1.1.2.7.2 1.2.3 1.6.1.4.1.6.1.6l-.3.2-1.1-1.9c-.2-.3-.4-.6-.6-1-.2-.4-.3-.8-.5-1.2-.4-.9-.9-1.9-1.2-3-.2-.6-.4-1.1-.6-1.8-.2-.6-.3-1.3-.4-1.9-.3-1.3-.4-2.7-.6-4.2-.1-.7 0-1.5-.1-2.2v-1.1c0-.4.1-.8.1-1.2.1-.8.1-1.6.2-2.3.1-.8.3-1.6.4-2.3l.6-2.3c.2-.8.5-1.5.8-2.2.5-1.5 1.2-2.8 1.9-4.1l1.2-1.8.6-.9c.2-.3.4-.5.6-.8l1.2-1.5c.4-.5.9-.9 1.3-1.3l1.2-1.2c.4-.3.8-.7 1.2-1 .4-.3.7-.6 1-.9.3-.2.7-.4.9-.6 1.1-.8 1.8-1.2 1.8-1.2h.3zM164.7 261s.2-.1.5-.2c.4-.1.9-.4 1.5-.6.3-.1.7-.3 1.1-.4.4-.1.9-.2 1.4-.3l1.6-.3c.6-.1 1.2-.1 1.8-.1.6 0 1.3-.1 2-.1s1.4.1 2.1.2c.4 0 .7.1 1.1.1.4.1.7.1 1.1.2.8.1 1.5.3 2.3.5 1.5.5 3.1 1.1 4.6 1.9.8.4 1.5.8 2.2 1.3.7.5 1.5.9 2.1 1.5l2 1.7c.7.6 1.2 1.2 1.8 1.9l.9.9.7 1c.5.7 1 1.3 1.4 2 .8 1.4 1.5 2.8 2 4.2.3.7.5 1.3.7 2 .2.7.3 1.3.5 1.9.1.6.3 1.2.3 1.8.1.6.1 1.1.1 1.6s.1 1 .1 1.4c0 .4 0 .8-.1 1.2 0 .7-.1 1.3-.2 1.7-.1.4-.1.6-.1.6l-.4.1-.5-2.1c-.1-.3-.2-.7-.2-1.1-.1-.4-.3-.8-.4-1.3-.3-.9-.6-1.9-1.1-3-.2-.5-.5-1.1-.7-1.7-.3-.6-.6-1.1-.9-1.7-.6-1.2-1.4-2.3-2.2-3.5-.4-.6-.9-1.1-1.4-1.7l-.7-.9-.8-.8c-.5-.5-1-1.1-1.6-1.6l-1.8-1.5c-.6-.5-1.3-.9-1.9-1.3-.6-.5-1.3-.8-1.9-1.2-1.3-.8-2.7-1.4-4-1.9-.7-.3-1.4-.5-2-.7l-1-.3c-.3-.1-.7-.1-1-.2-.6-.1-1.3-.3-1.9-.4-.6-.1-1.2-.1-1.8-.2-.6-.1-1.1-.2-1.6-.2h-2.8c-.4 0-.8.1-1.1.1-1.4.1-2.1.2-2.1.2l.3-.7z" class="st5"/>
        <path d="M180.8 249.4s.2-.1.6-.2c.2-.1.4-.1.7-.1.3 0 .7-.1 1 0 .8 0 1.7.2 2.7.6 1 .4 2.1 1 3.2 1.8 1 .8 2.1 1.8 3 2.9.9 1.1 1.8 2.4 2.6 3.7.8 1.3 1.5 2.8 2.1 4.3.6 1.5 1.1 3 1.6 4.6.4 1.6.8 3.1 1 4.7l.3 2.3c.1.8.2 1.5.2 2.3.1 1.5.1 2.9.1 4.3s-.1 2.7-.2 3.8c-.1 1.2-.3 2.3-.5 3.2-.2 1-.4 1.8-.6 2.5-.2.7-.4 1.2-.5 1.6-.1.4-.2.6-.2.6h-.4v-2.1c0-1.3-.1-3.2-.3-5.5-.3-4.6-1.1-10.6-2.8-16.5-.8-2.9-1.8-5.8-3-8.4-1.2-2.6-2.7-4.8-4.2-6.5-.8-.8-1.6-1.5-2.3-2-.8-.5-1.5-.8-2.1-1-.3-.1-.6-.2-.8-.2-.2-.1-.5-.1-.6-.1h-.5l-.1-.6z" class="st5"/>
      </g>
      <g>
        <path d="M180 585.1h291v-48.4l-42.8-97.2c-13.8-31.4-50.8-45.7-82.2-31.9l-147.4 65c-31.4 13.8-45.7 50.8-31.9 82.2l13.3 30.3z" class="st7"/>
      </g>
      <path d="M471 186.2c-10.2-6.3-23.7-9.9-36-6.9-9.3 2.3-17.5 8.1-25.4 13.8-2.2 1.5-4.5 3.3-5.3 5.7-1.3 4.1 2.1 7.6 5.2 10.1 23.4 19.2 42 41.3 61.4 64.5" class="st7"/>
      <g>
        <path d="M325.6 401.2L211 451.7c-23.8 10.5-51.8-.4-62.3-24.2l-12.3-28c-10.5-23.8.4-51.8 24.2-62.3l114.5-50.5c23.8-10.5 51.8.4 62.3 24.2l12.3 28c10.5 23.8-.4 51.8-24.1 62.3z" class="st8"/>
      </g>
      <path d="M137.3 364.8c4.5.3 9 .7 13.5 1-3.6-5-7.4-9.9-11.3-14.6l-5.1 12.9m13.4-13.4c1.3 1.1 3 1.4 4.7 1.8 3 .6 6 1.2 8.9 1.8.2-.3 0-.7-.1-1-1.2-2.6-2.3-5.3-3.5-7.9-.2-.5-.5-1.1-.9-1.4-.7-.6-1.7-.6-2.6-.3-.8.3-1.5.9-2.2 1.5-1.2 1-2.4 2-3.6 3.1m41.4-28.4c4.9 2.1 10.2 4.5 12.5 9.3 1-6.3 1.8-12.6 2.3-18.9.1-.8-.1-1.9-.9-1.9-.3 0-.5.1-.7.3-5.7 3.4-11.5 6.8-17.2 10.2m23.7-7.9c2.8 3.8 8.5 4.3 11.3 8.1.4-4.1.1-8.2-1-12.2-.1-.5-.3-.9-.7-1.2-.7-.4-1.6.1-2.3.5-2.6 1.4-6.1 1.5-7.7 4.1m27.2-8.3l3.1 3.7c1.5 1.7 3 3.8 2.8 6 1.6-4.5 3.2-8.9 4.8-13.4.1-.3.2-.6.1-.9-.1-.4-.5-.6-.8-.7-1.8-.6-3.7.3-5.4 1.2-1.6.9-3.2 1.7-4.8 2.6m20.7-10.3c4.8.7 9 4.3 10.5 8.8.6-4.2 1.3-8.5.2-12.6-.1-.4-.3-.8-.6-1-.5-.3-1.1 0-1.6.2l-9.6 5.1m23.1-4.6c1.4 3.4 3.5 6.4 5.3 9.6 1.7 3.2 3.1 6.8 2.9 10.4 4.1-6 7.1-12.6 9-19.6.1-.5.2-1.1-.1-1.4-.3-.3-.8-.2-1.2-.1-1.8.3-3.7.4-5.6.1-1.5-.2-3-.6-4.6-.7-1.5-.1-3.2.2-4.4 1.2m25.3 17.2c-1.7 4.7-2.7 9.6-2.8 14.6 2.5-1 5-2.3 7.2-3.8.4-.3.8-.6 1.1-1 .4-.7.2-1.5 0-2.3-1-3.6-2.4-7.2-4.1-10.5m10.7 17.4c-3 4.4-5.4 9.2-7.2 14.2-.2.7-.4 1.5.1 2 .3.3.8.3 1.2.3 2.9-.1 5.7-.2 8.6-.4.3 0 .6 0 .8-.3.1-.2.1-.4.1-.6-.8-5.6-2.4-11-4.7-16.1m9.7 21.4c-3.7 4.8-7.9 9.3-12.5 13.2-.2.2-.4.4-.4.6 0 .5.5.7.9.8 4.5 1.1 9.3.5 13.9-.2.2 0 .4-.1.5-.2.3-.2.3-.7.2-1.1-.9-3.7-2.7-7.3-5-10.3m13.3 22.6c-4.3 1.5-8.2 4.1-11.4 7.3 3.5 1.2 7.2 1.9 10.9 1.9.2 0 .3 0 .5-.1s.2-.3.2-.5c.3-2 .5-4.1.6-6.1m-193.3 10.3c4 1.1 7.7 2.9 10.8 5.5 1.5 1.2 2.9 2.7 4.8 3.3-2 2.9-4.3 5.6-6.9 8-3.2-4.8-6.5-9.6-9.7-14.4m11 23.6c7 .5 13.6 3.3 18.3 7.8.2.2.4.4.4.7 0 .3-.2.6-.4.8-2 2.5-4.1 4.8-6.4 7.1-.2.2-.5.5-.9.5-.5.1-.9-.4-1.2-.8-3.7-5.4-7.2-10.9-10.3-16.6m9.2 26c7.3-.2 14.9.6 20.5 4.7.2.2.5.3.5.6.1.4-.3.9-.6 1.2-3.2 2.7-7.8 3.9-10.5 7.2-.2.3-.5.6-.8.6-.4 0-.6-.2-.9-.5-2.4-2.6-4.8-5.1-7.1-7.7-1.7-1.8-3.5-3.8-4.2-6.2" class="st2"/>
      <g>
        <path d="M244.6 407.2c-.3-.2-.6-.5-.7-.8-.9-2.1 3.3-6 9.3-8.6 6.1-2.7 11.7-3.2 12.7-1.1.2.5.2 1-.1 1.6" class="st9"/>
        <path d="M245.8 380.8l4.4-1.9c3.6-1.6 7.1.2 6.3 3.2l-1 3.7-1.5 5.4c-.7 2.7-3.7 4-6.2 2.7l-4.9-2.5-3.4-1.7c-2.8-1.4-1.8-5.2 1.9-6.9l4.4-2z" class="st5"/>
        <path d="M250.1 390.5l3.3 7.7" class="st9"/>
      </g>
      <g>
        <path d="M326.3 268.6c19.4-24.3 25.7-57.7 16.3-86.3-.3-1-.7-2.1-1.6-2.7-.7-.5-1.7-.7-2.6-.7-16.3-1.8-33 4.4-46 14.5s-22.6 23.9-29.8 38.5c-.9 1.8-1.8 3.7-1.5 5.6.3 2.8 2.7 4.7 5 6.4 8 6 15.9 12 23.9 18 8.1 6.1 16.7 12.4 27 14 2.8.4 5.8.5 8.4-.8 3.9-1.9 5.9-7 4.2-10.9" class="st10"/>
        <path d="M315 262.3c11.8-14.9 15.7-35.3 10-52.8-.2-.6-.4-1.3-1-1.7-.4-.3-1-.4-1.6-.5-9.9-1.1-20.2 2.7-28.1 8.9-7.9 6.2-13.8 14.6-18.2 23.5-.5 1.1-1.1 2.3-.9 3.5.2 1.7 1.7 2.9 3 3.9l14.6 11c5 3.7 10.2 7.6 16.5 8.6 1.7.3 3.6.3 5.1-.5 2.4-1.2 3.6-4.3 2.6-6.6" class="st5"/>
        <path d="M112.6 362.9c-31-2.1-59.9-20-74.7-46.2-.5-.9-1.1-1.9-.9-3 .1-.9.6-1.7 1.2-2.4 9.7-13.2 25.5-21.4 41.8-24.2s32.9-.5 48.5 4c1.9.6 3.9 1.2 5.2 2.7 1.8 2.1 1.7 5.2 1.4 8-.9 9.9-1.9 19.9-2.8 29.8-1 10.1-2.1 20.7-7.8 29.3-1.6 2.4-3.6 4.6-6.3 5.6-4.1 1.6-9.2-.4-10.9-4.2" class="st10"/>
        <path d="M115.5 350.3C96.5 349 78.9 338 69.8 322c-.3-.6-.6-1.2-.6-1.8.1-.5.4-1 .7-1.5 5.9-8.1 15.6-13.1 25.5-14.8s20.1-.3 29.6 2.4c1.2.3 2.4.7 3.2 1.6 1.1 1.3 1 3.2.9 4.9-.6 6.1-1.1 12.1-1.7 18.2-.6 6.2-1.3 12.7-4.8 17.9-1 1.4-2.2 2.8-3.8 3.5-2.5 1-5.6-.2-6.6-2.6" class="st5"/>
      </g>
      <g>
        <radialGradient id="Auge_rechts_1_" cx="213.29" cy="343.95" r="29.34" gradientTransform="matrix(.999 -.4534 .3953 .8708 -84.61 132.873)" gradientUnits="userSpaceOnUse">
          <stop offset=".05" stop-color="#E69325" stop-opacity=".1"/>
          <stop offset=".29" stop-color="#D78722" stop-opacity=".32"/>
          <stop offset=".75" stop-color="#B0671A" stop-opacity=".74"/>
          <stop offset=".98" stop-color="#995515" stop-opacity=".95"/>
        </radialGradient>
        <path d="M293.7 322.4c6.4 14.2-1.5 31.6-17.7 39-16.2 7.3-34.5 1.8-41-12.3s1.5-31.6 17.7-39c16.3-7.4 34.6-1.9 41 12.3z" class="st11"/>
        <radialGradient id="Auge_links_1_" cx="147.05" cy="343.13" r="29.34" gradientTransform="matrix(.999 -.4534 .3953 .8708 -84.61 132.87)" gradientUnits="userSpaceOnUse">
          <stop offset=".05" stop-color="#E69325" stop-opacity=".1"/>
          <stop offset=".29" stop-color="#D78722" stop-opacity=".32"/>
          <stop offset=".75" stop-color="#B0671A" stop-opacity=".74"/>
          <stop offset=".98" stop-color="#995515" stop-opacity=".95"/>
        </radialGradient>
        <path d="M227.2 351.7c6.4 14.2-1.5 31.6-17.7 39-16.2 7.3-34.5 1.8-41-12.3s1.5-31.6 17.7-39c16.3-7.4 34.6-1.9 41 12.3z" class="st12"/>
        <radialGradient id="Pupille_rechts_1_" cx="207.65" cy="343.13" r="25.78" gradientTransform="rotate(-23.794 227.783 203.378)" gradientUnits="userSpaceOnUse">
          <stop offset=".14" stop-color="#1D1D1B" stop-opacity=".2"/>
          <stop offset=".95" stop-color="#1D1D1B" stop-opacity=".9"/>
        </radialGradient>
        <ellipse cx="265.8" cy="339.4" transform="rotate(-23.794 265.764 339.405)" class="st13" rx="26.8" ry="23.6"/>
        <radialGradient id="Pupille_links_1_" cx="134.98" cy="343.13" r="25.78" gradientTransform="rotate(-23.794 227.783 203.378)" gradientUnits="userSpaceOnUse">
          <stop offset=".14" stop-color="#1D1D1B" stop-opacity=".2"/>
          <stop offset=".95" stop-color="#1D1D1B" stop-opacity=".9"/>
        </radialGradient>
        <ellipse cx="199.3" cy="368.7" transform="rotate(-23.794 199.26 368.725)" class="st14" rx="26.8" ry="23.6"/>
        <circle cx="273.5" cy="354.3" r="6.1" class="st15"/>
        <circle cx="207.3" cy="383.5" r="6.1" class="st15"/>
        <g class="st0">
          <circle cx="185.9" cy="132.5" r="2.7" class="st16"/>
          <circle cx="246" cy="132.5" r="2.7" class="st16"/>
        </g>
      </g>
      <g>
        <path d="M286.3 279.7c4.7 0 11.3 2.4 14.2 9.1l34.9 79.1c2.2 5 1.1 9.5.2 11.7-.9 2.2-3.1 6.3-8.1 8.5L193 447.4c-1.9.8-3.9 1.3-6 1.3-4.7 0-11.3-2.4-14.2-9.1l-34.9-79.1c-2.2-5-1.1-9.5-.2-11.7s3.1-6.3 8.1-8.5L280.2 281c2-.9 4-1.3 6.1-1.3m0-47c-8.4 0-16.9 1.7-25 5.3l-134.5 59.3c-31.4 13.8-45.7 50.8-31.9 82.2l34.9 79.1c10.3 23.3 33.2 37.2 57.2 37.2 8.4 0 16.9-1.7 25-5.3l134.5-59.3c31.4-13.8 45.7-50.8 31.9-82.2l-34.9-79.1c-10.3-23.3-33.2-37.2-57.2-37.2z" class="st7"/>
        <g>
          <path d="M336.9 269.6L100.3 373.9c-5.2 2.3-4.9 3.7-7.2-1.5l-15.9-32.6c-2.3-5.2 18.1-19.3 23.3-21.6L293 233.3c5.2-2.3 28.3-7 30.6-1.8l14.7 31.6c2.4 5.2 3.8 4.2-1.4 6.5z" class="st17"/>
          <ellipse cx="350.1" cy="223.7" transform="rotate(-37.833 350.146 223.735)" class="st18" rx="35.5" ry="12.5"/>
          <ellipse cx="359.9" cy="245.9" transform="rotate(-13.775 359.87 245.915)" class="st18" rx="35.5" ry="12.5"/>
        </g>
      </g>
      <g>
        <path d="M103.3 464.4c5.4-.5 11 .4 16.1 2.9l78.1 39.4c14.3 7.2 19.5 24.9 11.7 39.3l-2.1 3.8c-7.8 14.4-25.9 20.3-40.2 13.1l-78.1-39.4c-14.3-7.2-19.5-24.9-11.7-39.3l2.1-3.8c5-9.2 14.3-15 24.1-16" class="st7"/>
        <path d="M162.2 560.7s-.4-.1-1-.4l-2.9-1.2c-1.2-.5-2.8-1.2-4.5-1.9-1.7-.7-3.7-1.6-5.8-2.6-2.1-1-4.4-2-6.8-3.1l-7.6-3.5c-2.6-1.3-5.3-2.5-8.1-3.9-2.7-1.4-5.5-2.7-8.3-4.1-2.8-1.4-5.5-2.8-8.2-4.2-2.7-1.4-5.4-2.8-7.9-4.2-2.6-1.3-5-2.7-7.4-4-2.3-1.3-4.5-2.5-6.6-3.6-2-1.1-3.9-2.2-5.5-3.1-1.6-1-3.1-1.8-4.2-2.5-1.2-.7-2.1-1.3-2.7-1.6-.6-.4-1-.6-1-.6l.1-.2s22.2 11.1 44.3 22.3l44.2 22.4h-.1z" class="st19 st5"/>
        <path d="M91.3 450.9l11.9 6.4c9.5 5.1 12.9 16.9 7.5 26.3l-14.4 25c-5.1 8.8-16.5 12.1-25.5 7.3L59 509.6c-9.5-5.1-12.9-16.9-7.5-26.3l14.4-25c5-8.9 16.4-12.2 25.4-7.4z" class="st7"/>
        <path d="M50.9 488.6l11.5-.6c9.2-.5 16.8 1.7 16.8 4.9v8.4c0 3-7.1 5.7-15.8 6.2l-11.5.5c-9.2.5-16.8-1.7-16.8-4.9v-8.4c0-2.9 7.1-5.7 15.8-6.1z" class="st7"/>
        <path d="M56.8 466.8l10.8 4.2c8.6 3.3 14.6 8.4 13.3 11.3l-3.4 7.7c-1.2 2.7-8.8 2.4-16.9-.8L49.8 485c-8.6-3.3-14.6-8.4-13.3-11.3l3.4-7.7c1.1-2.7 8.8-2.4 16.9.8z" class="st7"/>
        <path d="M73.2 448l8.5 7.8c6.8 6.2 10.6 13.1 8.4 15.3l-6 5.9c-2.1 2.1-9.1-1-15.5-6.8l-8.5-7.8c-6.8-6.2-10.6-13.1-8.4-15.3l6-5.9c2.1-2.1 9.1 1 15.5 6.8z" class="st7"/>
        <path d="M97.1 446.9v11.2c0 9-2.5 16.2-5.7 16.1l-8.4-.4c-3-.1-5.4-7.2-5.4-15.6V447c0-9 2.5-16.2 5.7-16.1l8.4.4c2.9.1 5.4 7.1 5.4 15.6z" class="st7"/>
        <path d="M92.3 445.1v3.9c0 3.1-1.3 5.6-2.8 5.6l-4.2-.1c-1.5 0-2.7-2.5-2.7-5.4v-3.9c0-3.1 1.3-5.6 2.8-5.6l4.2.1c1.4.1 2.6 2.5 2.7 5.4z" class="st8"/>
        <path d="M66.5 448l2.8 2.7c2.2 2.1 3.2 4.8 2 5.9l-3 2.9c-1.1 1-3.7.2-5.8-1.8l-2.8-2.7c-2.2-2.1-3.2-4.8-2-5.9l3-2.9c1.1-1 3.7-.2 5.8 1.8z" class="st8"/>
        <path d="M50.9 469.9l3.6 1.5c2.9 1.2 4.7 3.4 4 4.8l-1.8 3.8c-.6 1.3-3.4 1.5-6 .4l-3.6-1.5c-2.9-1.2-4.7-3.4-4-4.8l1.8-3.8c.6-1.4 3.3-1.6 6-.4z" class="st8"/>
        <path d="M48 493l3.4-.2c2.8-.2 5 1 5.1 2.6l.1 4.2c0 1.5-2.1 2.8-4.7 3l-3.4.2c-2.8.2-5-1-5.1-2.6l-.1-4.2c0-1.5 2.1-2.8 4.7-3z" class="st8"/>
        <path d="M103.5 457.3s.3.1.9.4c.6.2 1.4.7 2.4 1.4.9.7 2 1.7 2.9 3.1.5.7.9 1.5 1.4 2.3.4.9.8 1.8 1 2.8.6 2 .9 4.2.8 6.6-.1 2.4-.5 4.9-1.3 7.3l-.6 1.8c-.3.6-.5 1.2-.8 1.8-.5 1.2-1.1 2.3-1.7 3.4-1.1 2.3-2.3 4.6-3.5 7l-3.6 6.9c-.3.6-.6 1.1-.9 1.7l-.4.8-.1.2-.1.1-.1.2-.2.4c-.6 1.1-1.4 2.2-2.1 3.3-1.6 2.1-3.4 3.8-5.2 5.2-.9.7-1.9 1.3-2.9 1.9-1 .5-1.9 1-2.9 1.3-.5.2-.9.4-1.4.5-.5.1-.9.3-1.4.4-.9.2-1.8.3-2.6.3-1.7.1-3.1-.1-4.3-.4-1.1-.3-2-.6-2.5-.9l-.8-.4.1-.2.9.3c.6.3 1.4.5 2.5.7 1.1.1 2.5.3 4.1 0 1.6-.2 3.3-.7 5.1-1.4.9-.4 1.8-.9 2.7-1.4.9-.6 1.8-1.2 2.6-1.9 1.7-1.4 3.3-3.1 4.8-5.1 1.4-2 2.5-4.2 3.7-6.5 1.2-2.3 2.3-4.6 3.5-7 1.2-2.3 2.4-4.6 3.5-6.9 1.1-2.3 2.4-4.5 3.2-6.8.8-2.3 1.3-4.6 1.4-6.8.2-2.2-.1-4.3-.5-6.2-.2-1-.5-1.8-.8-2.7-.4-.8-.7-1.6-1.1-2.2-.8-1.4-1.8-2.4-2.6-3.1-.9-.7-1.6-1.2-2.1-1.5-.5-.3-.8-.5-.8-.5l-.2-.2z" class="st19 st5"/>
        <path d="M87.2 469.1l5.7 3c4.5 2.4 6.2 8.1 3.6 12.5l-6.8 11.9c-2.4 4.2-7.9 5.8-12.2 3.5l-5.7-3c-4.5-2.4-6.2-8.1-3.6-12.5l6.8-11.9c2.5-4.2 7.9-5.8 12.2-3.5z" class="st8"/>
        <path d="M97 491.7l-1.5 2.8c-1.2 2.3-3.4 3.5-4.8 2.6l-3.8-2.2c-1.3-.8-1.5-3.2-.4-5.3l1.5-2.8c1.2-2.3 3.4-3.5 4.8-2.6l3.8 2.2c1.4.8 1.6 3.2.4 5.3z" class="st7"/>
        <path d="M35.4 499.8l.4 3.4-7.6-.8-7.6-.7 7.2-2.7 7.1-2.6zm3.3-29.4l-1.3 3.2-6.2-4.4-6.3-4.4 7.6 1.2 7.5 1.2zm18-24.9l-2.4 2.5-4.1-6.4-4.2-6.4 6.5 4 6.6 3.9zm31.1-13.3l-3.4-.4 2.5-7.2 2.5-7.2.9 7.6.9 7.6z" class="st8"/>
        <path d="M452.8 335.7c1.2 5.5 1.1 11.5-.7 17.3l-27.4 89.4c-5 16.3-21.1 25.6-35.8 20.6l-3.9-1.3c-14.7-5-22.6-22.5-17.6-38.8l27.4-89.4c5-16.3 21.1-25.6 35.8-20.6l3.9 1.3c9.5 3.2 16.1 11.5 18.3 21.5" class="st7"/>
        <path d="M455.8 336.6L453 349c-2.3 10-12.2 16-22.1 13.5l-26.5-6.9c-9.3-2.4-15.2-12.1-13.1-21.5l2.8-12.5c2.3-10 12.2-16 22.1-13.5l26.5 6.9c9.4 2.5 15.3 12.2 13.1 21.6z" class="st7"/>
        <path d="M411.3 309l3.4 10.4c2.7 8.3 2.6 15.8-.3 16.5l-7.7 2.1c-2.7.7-7-5.1-9.6-12.9l-3.4-10.4c-2.7-8.3-2.6-15.8.3-16.5l7.7-2.1c2.7-.7 7 5.1 9.6 12.9z" class="st7"/>
        <path d="M432.7 308.9l-1.1 10.9c-.9 8.7-4 15.5-7 15l-7.9-1.2c-2.8-.4-4.4-7.5-3.5-15.7l1.1-10.9c.9-8.7 4-15.5 7-15l7.9 1.2c2.8.5 4.4 7.5 3.5 15.7z" class="st7"/>
        <path d="M454 319.3l-5 9.7c-4 7.8-9.3 13-11.9 11.5l-6.9-4c-2.4-1.4-1.4-8.5 2.4-15.9l5-9.7c4-7.8 9.3-13 11.9-11.5l6.9 4c2.4 1.4 1.3 8.5-2.4 15.9z" class="st7"/>
        <path d="M471 336.4c-2.4 1.7-5.9 3.4-10 4.5l-10.3 2.8c-8.2 2.3-15.5 1.8-16.1-1.2l-1.7-7.8c-.6-2.7 5.2-6.7 13-8.9l10.3-2.8c6.5-1.8 12.4-1.8 14.9-.3" class="st7"/>
        <path d="M461.4 336l-3.5 1c-2.8.8-5.4.2-5.8-1.2l-.9-3.9c-.3-1.4 1.6-3.1 4.3-3.8l3.5-1c2.8-.8 5.4-.2 5.8 1.2l.9 3.9c.3 1.3-1.6 3-4.3 3.8z" class="st8"/>
        <path d="M452.3 313.2l-1.7 3.2c-1.4 2.6-3.6 4.1-4.9 3.3l-3.4-2c-1.2-.7-1.1-3.3.2-5.7l1.7-3.2c1.4-2.6 3.6-4.1 4.9-3.3l3.4 2c1.2.7 1.1 3.3-.2 5.7z" class="st8"/>
        <path d="M428.4 304.4l-.5 3.6c-.4 2.9-1.9 5.1-3.4 4.8l-3.9-.7c-1.4-.2-2.2-2.7-1.8-5.4l.5-3.6c.4-2.9 1.9-5.1 3.4-4.8l3.9.7c1.4.2 2.2 2.6 1.8 5.4z" class="st8"/>
        <path d="M406.5 307.4l1 3.1c.8 2.5.3 4.9-1.1 5.3l-3.8 1.1c-1.4.4-3.1-1.2-3.9-3.5l-1-3.1c-.8-2.5-.3-4.9 1.1-5.3l3.8-1.1c1.4-.4 3.1 1.2 3.9 3.5z" class="st8"/>
        <path d="M453 349.3s0 .3-.1.9c-.1.6-.2 1.4-.6 2.5-.4 1-1.1 2.3-2.1 3.5-.5.6-1.1 1.2-1.7 1.8-.7.6-1.4 1.2-2.3 1.6-1.7 1-3.6 1.9-5.8 2.4-2.2.5-4.6.8-7 .7-.6 0-1.2-.1-1.9-.1-.6-.1-1.2-.2-1.9-.3-1.2-.2-2.4-.4-3.6-.7-2.4-.5-4.8-.9-7.2-1.4l-7.2-1.5c-.6-.1-1.2-.3-1.8-.4l-.9-.2h-.3l-.2-.1-.4-.1c-1.1-.3-2.4-.7-3.5-1.1-2.3-.9-4.3-2.1-6.1-3.5-.9-.7-1.7-1.4-2.5-2.1-.7-.8-1.4-1.5-2-2.3-.3-.4-.6-.8-.8-1.2-.2-.4-.5-.8-.7-1.2-.4-.8-.7-1.6-.9-2.3-.5-1.5-.7-2.9-.7-4s.1-2 .2-2.6c.1-.6.2-.9.2-.9h.2s0 .3-.1.9c-.1.6-.1 1.4 0 2.5s.4 2.4 1 3.7c.5 1.4 1.4 2.9 2.6 4.3 1.1 1.4 2.6 2.8 4.4 4 1.7 1.2 3.7 2.3 5.9 3.1 2.2.8 4.5 1.3 6.9 1.7l7.2 1.5 7.2 1.5c2.4.5 4.7 1.1 7 1.2 2.3.1 4.5 0 6.6-.4 2.1-.4 4-1.1 5.6-2 .8-.4 1.5-.9 2.2-1.4.6-.5 1.3-1 1.8-1.6 1.1-1.1 1.7-2.2 2.2-3.1.4-1 .7-1.8.8-2.3.1-.6.2-.9.2-.9l.1-.1z" class="st19 st5"/>
        <path d="M438.2 337.4l-1.4 5.9c-1.1 4.8-5.8 7.6-10.6 6.4l-12.6-3.3c-4.4-1.2-7.2-5.8-6.2-10.2l1.4-5.9c1.1-4.8 5.8-7.6 10.6-6.4l12.6 3.3c4.4 1.1 7.2 5.7 6.2 10.2z" class="st8"/>
        <path d="M420 352l-3-.7c-2.4-.5-4-2.2-3.6-3.7l1.1-4c.4-1.4 2.5-2.2 4.7-1.6l3 .7c2.4.5 4 2.2 3.6 3.7l-1.1 4c-.4 1.4-2.5 2.1-4.7 1.6z" class="st7"/>
        <path d="M397.2 297.6l-3 1.3-1.2-7.2-1.2-7.1 4.2 5.9 4.2 5.9zm27.7-4.3l-3.2-.3 2.4-6.9 2.5-6.8.8 7.2.7 7.2zm27.2 10.3l-2.8-1.6 4.8-5.4 4.8-5.4-2 7-1.9 6.9z" class="st8"/>
      </g>
      <path d="M121.9 484.5c-7.8-28 41.2-70.2 109.5-94.3m-101.5 103c-10.5-26.9 34.7-72.9 101.2-102.7m-87.9 113.3c-14.3-25 24.9-75.6 87.6-113.3m173.6-37.4C387.7 329.3 324 340.5 262 378m144.1-13.2c-14.2-25.2-78.4-19.3-143.6 13.1m143.3 3.9c-10.3-26.8-74.3-28.6-143.2-4" class="st20"/>
      <path d="M211 324.7c-18.4-1-36.7 0-54.9 2.9-.3 0 .2 5 0 5 18.2-2.9 36.5-3.9 54.9-2.9 0 0 .2-5 0-5zm19.3-2.6c12.5-13 26.2-24.8 40.9-35.3.8-.6-.8-4.5 0-5-14.7 10.5-28.4 22.3-40.9 35.3-.9.8.8 4.1 0 5z" class="st5"/>
    </g>
  </switch>
</svg>
